<svg xmlns="http://www.w3.org/2000/svg" xmlns:xlink="http://www.w3.org/1999/xlink" viewBox="0,0,256,256" width="50px" height="50px" fill-rule="nonzero"><g fill="#636363" fill-rule="nonzero" stroke="none" stroke-width="1" stroke-linecap="butt" stroke-linejoin="miter" stroke-miterlimit="10" stroke-dasharray="" stroke-dashoffset="0" font-family="none" font-weight="none" font-size="none" text-anchor="none" style="mix-blend-mode: normal"><g transform="scale(5.12,5.12)"><path d="M23.5,0v4.5h-4v2h4v4.5h2v-4.5h4v-2h-4v-4.5zM11,5v6h-6v2h6v6h2v-6h6v-2h-6v-6zM36,5v6h-6v2h6v6h2v-6h6v-2h-6v-6zM23,16v7h-7v3h7v7h3v-7h7v-3h-7v-7zM5,19v4.5h-4v2h4v4.5h2v-4.5h4v-2h-4v-4.5zM43,19v4.5h-4v2h4v4.5h2v-4.5h4v-2h-4v-4.5zM11,29v6h-6v2h6v6h2v-6h6v-2h-6v-6zM36,29v6h-6v2h6v6h2v-6h6v-2h-6v-6zM23.5,38v4.5h-4v2h4v4.5h2v-4.5h4v-2h-4v-4.5z"></path></g></g></svg>